<svg width="226" height="133" viewBox="0 0 226 133" fill="none" xmlns="http://www.w3.org/2000/svg">
<circle cx="70" cy="67" r="50" fill="black"/>
<circle cx="70" cy="67" r="50" fill="black"/>
<ellipse cx="31.5" cy="91" rx="20.5" ry="21" fill="white"/>
<ellipse cx="105.5" cy="65.5" rx="26.5" ry="25.5" fill="white"/>
<path d="M123 65.5C123 74.4731 115.308 82 105.5 82C95.6919 82 88 74.4731 88 65.5C88 56.5269 95.6919 49 105.5 49C115.308 49 123 56.5269 123 65.5Z" fill="white" stroke="black" stroke-width="6"/>
<path d="M134 66.5C134 102.081 104.493 131 68 131C31.5069 131 2 102.081 2 66.5C2 30.9195 31.5069 2 68 2C104.493 2 134 30.9195 134 66.5Z" stroke="black" stroke-width="4"/>
<rect x="114" y="37" width="100" height="57" fill="white"/>
<path d="M133.608 48.496V69.04C133.608 71.408 134.072 73.184 135 74.368C135.928 75.52 137.48 76.096 139.656 76.096C141.832 76.096 143.384 75.52 144.312 74.368C145.24 73.184 145.704 71.408 145.704 69.04V48.496H152.808V68.272C152.808 70.736 152.568 72.88 152.088 74.704C151.64 76.496 150.888 77.984 149.832 79.168C148.776 80.32 147.416 81.184 145.752 81.76C144.088 82.304 142.056 82.576 139.656 82.576C137.256 82.576 135.224 82.304 133.56 81.76C131.896 81.184 130.536 80.32 129.48 79.168C128.424 77.984 127.656 76.496 127.176 74.704C126.728 72.88 126.504 70.736 126.504 68.272V48.496H133.608ZM185.336 54.976V82H178.04V54.976H168.968V48.496H194.408V54.976H185.336ZM206.311 48.496V69.04C206.311 71.408 206.775 73.184 207.703 74.368C208.631 75.52 210.183 76.096 212.359 76.096C214.535 76.096 216.087 75.52 217.015 74.368C217.943 73.184 218.407 71.408 218.407 69.04V48.496H225.511V68.272C225.511 70.736 225.271 72.88 224.791 74.704C224.343 76.496 223.591 77.984 222.535 79.168C221.479 80.32 220.119 81.184 218.455 81.76C216.791 82.304 214.759 82.576 212.359 82.576C209.959 82.576 207.927 82.304 206.263 81.76C204.599 81.184 203.239 80.32 202.183 79.168C201.127 77.984 200.359 76.496 199.879 74.704C199.431 72.88 199.207 70.736 199.207 68.272V48.496H206.311Z" fill="black"/>
</svg>
